<svg fill="#000000" role="img" viewBox="0 0 24 24" xmlns="http://www.w3.org/2000/svg"><title>xAI Grok</title><path d="M9.27 15.29l7.978-5.897c.391-.29.95-.179 1.137.272.98 2.369.542 5.215-1.41 7.169-1.951 1.954-4.667 2.382-7.149 1.406l-2.711 1.257c3.889 2.661 8.611 2.003 11.562-.953 2.341-2.344 3.066-5.539 2.388-8.42l.006.007c-.983-4.232.242-5.924 2.75-9.383.06-.082.12-.164.179-.248l-3.301 3.305v-.01L9.267 15.292M7.623 16.723c-2.792-2.67-2.31-6.825.071-9.21 1.761-1.763 4.647-2.483 7.166-1.416l2.705-1.253c-.487-.34-1.114-.673-1.732-.89-3.034-1.176-6.532-.537-8.989 1.923-2.366 2.37-3.084 5.928-1.808 9.046 0 0 .013 0 .049-.026z"/></svg>
